<?xml version="1.0" encoding="utf-8"?>
<!-- Generator: Adobe Illustrator 16.0.0, SVG Export Plug-In . SVG Version: 6.00 Build 0)  -->
<!DOCTYPE svg PUBLIC "-//W3C//DTD SVG 1.1//EN" "http://www.w3.org/Graphics/SVG/1.1/DTD/svg11.dtd">
<svg version="1.1" id="Layer_1" xmlns="http://www.w3.org/2000/svg" xmlns:xlink="http://www.w3.org/1999/xlink" x="0px" y="0px"
	 width="83.883px" height="85.039px" viewBox="0 0 83.883 85.039" enable-background="new 0 0 83.883 85.039" xml:space="preserve">
<rect x="-1.156" width="85.039" height="85.039"/>
<g>
	<path fill="#FFFFFF" d="M44.136,52.672c-0.913,3.312-2.376,6.036-4.392,8.172s-4.417,3.696-7.2,4.68
		C29.759,66.506,26.687,67,23.328,67c-4.8,0-8.953-0.973-12.456-2.916c-3.504-1.945-6.192-4.74-8.064-8.389
		C0.936,52.048,0,47.656,0,42.52c0-5.136,0.936-9.527,2.808-13.176c1.872-3.647,4.56-6.444,8.064-8.389
		c3.503-1.943,7.632-2.916,12.384-2.916c3.312,0,6.359,0.469,9.144,1.404c2.783,0.936,5.135,2.365,7.056,4.284
		c1.919,1.92,3.288,4.392,4.104,7.415l-10.872,4.393c-0.673-2.976-1.764-5.016-3.276-6.119c-1.512-1.104-3.42-1.656-5.724-1.656
		c-2.257,0-4.212,0.552-5.868,1.656c-1.656,1.104-2.928,2.748-3.816,4.932c-0.889,2.185-1.332,4.908-1.332,8.172
		c0,3.217,0.407,5.929,1.224,8.136c0.815,2.208,2.052,3.864,3.708,4.968c1.656,1.105,3.708,1.656,6.156,1.656
		c2.304,0,4.259-0.636,5.868-1.908c1.607-1.271,2.7-3.228,3.276-5.867L44.136,52.672z"/>
	<path fill="#FFFFFF" d="M82.728,28.336H58.176v10.08H77.76v9.575H58.176v18.288H45.791V18.76h36.937V28.336z"/>
</g>
</svg>
