<?xml version="1.0" encoding="utf-8"?>
<!-- Generator: Adobe Illustrator 16.0.0, SVG Export Plug-In . SVG Version: 6.00 Build 0)  -->
<!DOCTYPE svg PUBLIC "-//W3C//DTD SVG 1.1//EN" "http://www.w3.org/Graphics/SVG/1.1/DTD/svg11.dtd">
<svg version="1.1" id="Layer_1" xmlns="http://www.w3.org/2000/svg" xmlns:xlink="http://www.w3.org/1999/xlink" x="0px" y="0px"
	 width="480.379px" height="77.737px" viewBox="0 0 480.379 77.737" enable-background="new 0 0 480.379 77.737"
	 xml:space="preserve">
<g>
	<path d="M44.136,48.649c-0.913,3.313-2.376,6.037-4.392,8.172c-2.016,2.137-4.417,3.697-7.2,4.68
		c-2.785,0.983-5.857,1.477-9.216,1.477c-4.8,0-8.953-0.973-12.456-2.916c-3.504-1.944-6.192-4.74-8.064-8.389
		C0.936,48.026,0,43.634,0,38.497c0-5.135,0.936-9.527,2.808-13.176c1.872-3.646,4.56-6.443,8.064-8.389
		c3.503-1.943,7.632-2.916,12.384-2.916c3.312,0,6.359,0.469,9.144,1.404c2.783,0.937,5.135,2.365,7.056,4.285
		c1.919,1.92,3.288,4.391,4.104,7.415l-10.872,4.392c-0.673-2.975-1.764-5.015-3.276-6.119c-1.512-1.104-3.42-1.656-5.724-1.656
		c-2.257,0-4.212,0.553-5.868,1.656c-1.656,1.104-2.928,2.748-3.816,4.932c-0.889,2.186-1.332,4.908-1.332,8.172
		c0,3.217,0.407,5.93,1.224,8.137c0.815,2.208,2.052,3.863,3.708,4.968c1.656,1.104,3.708,1.655,6.156,1.655
		c2.304,0,4.259-0.635,5.868-1.908c1.607-1.271,2.7-3.227,3.276-5.867L44.136,48.649z"/>
	<path d="M47.592,62.257V10.993h12.24V32.81c1.055-2.4,2.567-4.213,4.536-5.436c1.968-1.225,4.248-1.837,6.84-1.837
		c2.496,0,4.668,0.48,6.516,1.44c1.847,0.961,3.3,2.376,4.356,4.248c1.055,1.871,1.584,4.225,1.584,7.056v23.976h-12.24V41.665
		c0-2.592-0.468-4.379-1.404-5.363s-2.172-1.477-3.708-1.477c-1.152,0-2.232,0.288-3.24,0.864c-1.008,0.575-1.8,1.488-2.376,2.735
		c-0.576,1.25-0.864,2.881-0.864,4.896v18.936H47.592z"/>
	<path d="M89.64,62.257v-36h10.8l0.504,7.776c0.912-2.688,2.268-4.775,4.068-6.264c1.8-1.487,4.091-2.232,6.876-2.232
		c0.911,0,1.692,0.072,2.34,0.216c0.648,0.145,1.163,0.337,1.548,0.576l-1.224,10.08c-0.48-0.191-1.093-0.348-1.836-0.468
		c-0.745-0.119-1.645-0.181-2.7-0.181c-1.44,0-2.785,0.313-4.032,0.937c-1.249,0.624-2.244,1.548-2.988,2.772
		c-0.745,1.224-1.116,2.771-1.116,4.644v18.144H89.64z"/>
	<path d="M124.127,22.081c-2.497,0-4.309-0.468-5.436-1.404c-1.128-0.936-1.692-2.412-1.692-4.428c0-2.063,0.564-3.563,1.692-4.5
		c1.127-0.936,2.939-1.404,5.436-1.404c2.448,0,4.248,0.469,5.4,1.404c1.152,0.937,1.728,2.438,1.728,4.5
		c0,2.016-0.576,3.492-1.728,4.428C128.375,21.613,126.575,22.081,124.127,22.081z M130.247,26.257v36h-12.24v-36H130.247z"/>
	<path d="M151.486,62.978c-3.6,0-6.948-0.588-10.044-1.764c-3.096-1.176-5.652-2.868-7.668-5.076l5.76-6.769
		c1.199,1.537,2.795,2.821,4.788,3.853c1.991,1.032,4.212,1.548,6.66,1.548c1.487,0,2.711-0.216,3.672-0.648
		c0.959-0.432,1.44-1.104,1.44-2.016c0-0.672-0.241-1.212-0.72-1.62c-0.48-0.407-1.44-0.756-2.88-1.044l-5.04-1.009
		c-4.512-0.91-7.716-2.268-9.612-4.067c-1.897-1.8-2.844-4.163-2.844-7.092c0-1.968,0.6-3.853,1.8-5.652
		c1.199-1.8,3.047-3.263,5.544-4.392c2.495-1.127,5.688-1.692,9.576-1.692c3.647,0,6.864,0.528,9.648,1.584
		c2.784,1.057,4.992,2.593,6.624,4.608l-5.832,6.624c-1.152-1.44-2.64-2.567-4.464-3.384c-1.825-0.816-3.648-1.225-5.472-1.225
		c-1.152,0-2.124,0.108-2.916,0.324s-1.38,0.517-1.764,0.9c-0.385,0.385-0.576,0.863-0.576,1.439c0,0.625,0.299,1.164,0.9,1.62
		c0.6,0.456,1.716,0.853,3.348,1.188l6.552,1.295c3.695,0.674,6.359,1.897,7.992,3.673c1.631,1.776,2.448,3.913,2.448,6.407
		c0,2.354-0.625,4.465-1.872,6.336c-1.249,1.873-3.121,3.349-5.616,4.429C158.421,62.438,155.277,62.978,151.486,62.978z"/>
	<path d="M221.685,24.313h-24.553v10.08h19.584v9.576h-19.584v18.287h-12.384v-47.52h36.937V24.313z"/>
	<path d="M239.326,62.978c-3.984,0-7.429-0.744-10.332-2.232c-2.904-1.486-5.147-3.623-6.731-6.408
		c-1.585-2.783-2.377-6.143-2.377-10.08c0-3.935,0.792-7.295,2.377-10.08c1.584-2.783,3.803-4.919,6.659-6.407
		c2.855-1.487,6.132-2.232,9.828-2.232c3.791,0,7.021,0.732,9.685,2.196c2.664,1.465,4.69,3.48,6.084,6.048
		c1.392,2.568,2.088,5.509,2.088,8.82c0,0.864-0.025,1.728-0.072,2.592c-0.049,0.864-0.12,1.584-0.216,2.16h-28.512v-6.552h23.111
		l-5.832,2.231c0-2.88-0.516-5.087-1.548-6.624c-1.032-1.535-2.628-2.304-4.788-2.304c-1.536,0-2.844,0.36-3.924,1.08
		s-1.896,1.849-2.448,3.384c-0.552,1.537-0.828,3.504-0.828,5.904c0,2.352,0.313,4.26,0.937,5.724
		c0.623,1.465,1.512,2.521,2.664,3.168c1.151,0.647,2.543,0.972,4.176,0.972c1.823,0,3.276-0.359,4.356-1.08
		c1.08-0.72,1.883-1.728,2.411-3.023l9.792,3.24c-0.672,2.064-1.836,3.805-3.491,5.22c-1.656,1.417-3.625,2.483-5.904,3.204
		C244.209,62.617,241.821,62.978,239.326,62.978z"/>
	<path d="M260.853,62.257v-36h10.801l0.504,7.776c0.911-2.688,2.268-4.775,4.067-6.264c1.801-1.487,4.092-2.232,6.876-2.232
		c0.911,0,1.692,0.072,2.341,0.216c0.647,0.145,1.163,0.337,1.548,0.576l-1.225,10.08c-0.48-0.191-1.092-0.348-1.836-0.468
		c-0.744-0.119-1.645-0.181-2.7-0.181c-1.439,0-2.784,0.313-4.031,0.937c-1.249,0.624-2.245,1.548-2.988,2.772
		c-0.745,1.224-1.116,2.771-1.116,4.644v18.144H260.853z"/>
	<path d="M310.965,54.265c4.176,0,7.38,0.877,9.611,2.629c2.232,1.752,3.349,4.26,3.349,7.523c0,2.977-0.817,5.447-2.448,7.416
		c-1.633,1.968-3.924,3.443-6.876,4.428s-6.444,1.477-10.477,1.477c-6.528,0-11.231-0.816-14.111-2.447
		c-2.88-1.633-4.32-3.842-4.32-6.625c0-2.016,0.815-3.648,2.448-4.896c1.631-1.249,4.344-1.919,8.136-2.017l-0.288,1.152
		c-2.929-0.385-5.112-1.248-6.552-2.592c-1.44-1.344-2.16-3.168-2.16-5.473c0-2.304,0.911-4.176,2.736-5.615
		c1.823-1.44,4.248-2.232,7.271-2.377l4.464,2.089h-1.151c-1.872,0.097-3.193,0.408-3.96,0.937
		c-0.769,0.527-1.152,1.176-1.152,1.943c0,0.816,0.335,1.429,1.008,1.836c0.672,0.408,1.68,0.611,3.024,0.611H310.965z
		 M304.628,25.537c3.647,0,6.769,0.48,9.36,1.44c2.592,0.961,4.572,2.34,5.94,4.14s2.052,4.021,2.052,6.66
		c0,2.592-0.684,4.8-2.052,6.624s-3.349,3.204-5.94,4.141c-2.592,0.936-5.713,1.403-9.36,1.403c-5.712,0-10.044-1.056-12.995-3.168
		c-2.952-2.112-4.429-5.112-4.429-9c0-2.64,0.685-4.86,2.053-6.66c1.367-1.8,3.348-3.179,5.939-4.14
		C297.789,26.018,300.932,25.537,304.628,25.537z M304.197,69.817c2.304,0,4.212-0.156,5.724-0.469
		c1.513-0.313,2.652-0.744,3.421-1.295c0.767-0.553,1.151-1.188,1.151-1.908c0-0.721-0.265-1.285-0.792-1.692
		c-0.528-0.408-1.488-0.612-2.88-0.612h-12.888c-0.912,0-1.645,0.24-2.196,0.721c-0.553,0.479-0.828,1.08-0.828,1.8
		c0,1.104,0.815,1.955,2.448,2.556C298.988,69.517,301.268,69.817,304.197,69.817z M304.628,32.521
		c-1.584,0-2.868,0.456-3.852,1.368c-0.984,0.912-1.476,2.208-1.476,3.888c0,1.632,0.491,2.905,1.476,3.815
		c0.983,0.913,2.268,1.369,3.852,1.369c1.536,0,2.809-0.456,3.816-1.369c1.008-0.91,1.512-2.184,1.512-3.815
		c0-1.68-0.504-2.976-1.512-3.888S306.165,32.521,304.628,32.521z M323.349,16.609l1.008,8.208c-0.288-0.096-0.576-0.155-0.864-0.18
		c-0.288-0.023-0.576-0.036-0.864-0.036c-2.112,0-3.684,0.517-4.716,1.548c-1.032,1.033-1.548,2.316-1.548,3.852l-4.32-1.584
		c0-1.967,0.36-3.863,1.08-5.688c0.721-1.824,1.836-3.313,3.349-4.465c1.512-1.151,3.42-1.728,5.724-1.728c0.145,0,0.324,0,0.54,0
		S323.157,16.562,323.349,16.609z"/>
	<path d="M338.396,62.978c-2.447,0-4.597-0.421-6.443-1.26c-1.849-0.84-3.301-2.196-4.356-4.068s-1.584-4.32-1.584-7.344V26.257
		h12.24v21.168c0,2.305,0.456,3.913,1.368,4.824c0.911,0.912,2.207,1.368,3.888,1.368c0.864,0,1.68-0.155,2.448-0.468
		c0.768-0.312,1.439-0.792,2.016-1.439c0.576-0.648,1.02-1.488,1.332-2.521c0.312-1.032,0.468-2.243,0.468-3.636V26.257h12.24v36
		h-10.943l-0.36-6.768c-1.152,2.545-2.761,4.428-4.824,5.652C343.82,62.365,341.324,62.978,338.396,62.978z"/>
	<path d="M383.324,62.978c-3.6,0-6.947-0.588-10.044-1.764c-3.096-1.176-5.651-2.868-7.668-5.076l5.76-6.769
		c1.199,1.537,2.796,2.821,4.788,3.853c1.991,1.032,4.212,1.548,6.66,1.548c1.487,0,2.712-0.216,3.672-0.648
		c0.96-0.432,1.44-1.104,1.44-2.016c0-0.672-0.241-1.212-0.72-1.62c-0.48-0.407-1.44-0.756-2.881-1.044l-5.039-1.009
		c-4.513-0.91-7.717-2.268-9.612-4.067c-1.896-1.8-2.844-4.163-2.844-7.092c0-1.968,0.6-3.853,1.8-5.652
		c1.199-1.8,3.048-3.263,5.544-4.392c2.495-1.127,5.688-1.692,9.576-1.692c3.646,0,6.863,0.528,9.647,1.584
		c2.783,1.057,4.992,2.593,6.624,4.608l-5.832,6.624c-1.151-1.44-2.641-2.567-4.464-3.384c-1.824-0.816-3.648-1.225-5.472-1.225
		c-1.152,0-2.124,0.108-2.916,0.324s-1.381,0.517-1.765,0.9c-0.385,0.385-0.575,0.863-0.575,1.439c0,0.625,0.299,1.164,0.899,1.62
		c0.6,0.456,1.716,0.853,3.349,1.188l6.552,1.295c3.695,0.674,6.359,1.897,7.992,3.673c1.631,1.776,2.447,3.913,2.447,6.407
		c0,2.354-0.624,4.465-1.872,6.336c-1.248,1.873-3.12,3.349-5.615,4.429C390.259,62.438,387.116,62.978,383.324,62.978z"/>
	<path d="M420.909,25.537c3.791,0,7.115,0.732,9.972,2.196c2.855,1.465,5.087,3.6,6.696,6.408c1.607,2.808,2.412,6.181,2.412,10.115
		c0,3.938-0.805,7.309-2.412,10.117c-1.609,2.807-3.841,4.943-6.696,6.407c-2.856,1.465-6.181,2.196-9.972,2.196
		c-3.697,0-6.984-0.731-9.864-2.196c-2.88-1.464-5.124-3.601-6.732-6.407c-1.608-2.809-2.412-6.18-2.412-10.117
		c0-3.935,0.804-7.308,2.412-10.115c1.608-2.809,3.853-4.943,6.732-6.408C413.924,26.27,417.211,25.537,420.909,25.537z
		 M420.909,34.249c-1.394,0-2.593,0.337-3.601,1.008c-1.008,0.674-1.776,1.754-2.304,3.24c-0.528,1.488-0.792,3.409-0.792,5.76
		c0,2.354,0.264,4.261,0.792,5.725c0.527,1.465,1.296,2.545,2.304,3.24s2.207,1.043,3.601,1.043c1.439,0,2.664-0.348,3.672-1.043
		s1.775-1.775,2.304-3.24c0.527-1.464,0.792-3.371,0.792-5.725c0-2.351-0.265-4.271-0.792-5.76c-0.528-1.486-1.296-2.566-2.304-3.24
		C423.573,34.586,422.348,34.249,420.909,34.249z"/>
	<path d="M444.307,62.257v-36h10.944l0.648,12.385l-1.368-1.368c0.479-2.593,1.332-4.752,2.556-6.479
		c1.225-1.729,2.76-3.035,4.608-3.925c1.847-0.888,3.924-1.332,6.228-1.332c2.495,0,4.668,0.48,6.517,1.44
		c1.847,0.961,3.299,2.376,4.355,4.248c1.056,1.871,1.584,4.225,1.584,7.056v23.976h-12.24V41.521c0-2.495-0.48-4.224-1.439-5.185
		c-0.961-0.959-2.185-1.439-3.672-1.439c-1.152,0-2.232,0.277-3.24,0.828c-1.008,0.553-1.8,1.429-2.376,2.628
		c-0.576,1.2-0.864,2.808-0.864,4.823v19.08H444.307z"/>
</g>
</svg>
